<?xml version="1.0" encoding="utf-8"?>

<!DOCTYPE svg PUBLIC "-//W3C//DTD SVG 1.1//EN" "http://www.w3.org/Graphics/SVG/1.1/DTD/svg11.dtd">
<!-- Uploaded to: SVG Repo, www.svgrepo.com, Generator: SVG Repo Mixer Tools -->
<svg height="48px" width="48px" version="1.1" id="_x32_" xmlns="http://www.w3.org/2000/svg"
	 viewBox="0 0 512 512" xml:space="preserve">
<style type="text/css">
	.st0{fill:#000000;}
</style>
<g>
	<path class="st0" d="M509.89,473.304L272.174,21.652c-3.14-5.982-9.408-9.764-16.173-9.764c-6.766,0-13.033,3.783-16.174,9.764
		L2.11,473.304c-2.984,5.682-2.798,12.477,0.528,17.972c3.312,5.481,9.237,8.836,15.66,8.836h475.421
		c6.408,0,12.333-3.355,15.645-8.836C512.688,485.781,512.874,478.986,509.89,473.304z M48.574,463.541l9.864-18.744H335.54v-9.149
		H63.248l14.204-26.966h95.798v-9.149H82.262l17.744-33.718c6.824,5.296,16.816,13.005,22.511,17.274l5.482-7.324
		c-4.526-3.397-11.962-9.108-18.242-13.961c-1.998-1.542-3.783-2.926-5.425-4.197l52.389-99.551
		c18.285-9.022,46.021-20.856,71.202-23.854c56.798-6.794,102.564,11.005,111.885,11.862c-5.097-3.382-32.205-27.963-102.564-26.279
		c-34.017,0.814-56.272,10.364-71.417,20.97l36.486-69.318h73.8v-9.15h-68.99l10.834-20.57h62.723v-9.136h-57.912l33.232-63.151
		l64.506,122.576h-67.262v9.136h72.072l104.42,198.391H253.245v9.149h181.303l14.204,26.966h-81.224v9.149h86.035l9.864,18.744
		H48.574z"/>
	<path class="st0" d="M298.967,331.27c0-7.265-1.612-14.445-4.682-21.012c18.329,8.066,29.391,20.272,39.97,33.132
		c0,0,1.699,2.07,2.712,3.284c-0.785,2.283-2.583,8.15-7.123,23.838l-1.855,6.452l4.881-4.61c4.026-3.812,7.538-7.524,10.678-10.849
		c0,0,3.983-4.154,5.281-5.467c6.382-6.481,8.794-9.108,8.794-11.049c0-1.941-2.412-4.568-8.807-11.062
		c-1.3-1.314-5.568-5.796-5.568-5.796c-15.831-16.759-39.74-42.111-94.498-42.111c-54.745,0-78.654,25.338-94.47,42.096
		c0,0-4.298,4.496-5.596,5.81c-6.382,6.495-8.808,9.121-8.808,11.062c0,1.941,2.413,4.568,8.794,11.049
		c1.312,1.313,5.239,5.41,5.239,5.41c3.996,4.239,8.536,9.036,14.018,13.904l2.882-2.127c-8.051-17.986-10.919-24.339-12.033-26.666
		l3.354-4.053c4.868-5.939,9.921-12.077,15.93-17.757c10.121-8.851,18.487-14.147,22.384-14.147l1.528,0.77
		c-2.785,6.324-4.197,13.005-4.197,19.898c0,27.908,22.696,50.605,50.589,50.605C276.27,381.875,298.967,359.178,298.967,331.27z
		 M230.849,338.222c-9.708,0-17.616-7.893-17.616-17.615c0-9.72,7.908-17.614,17.616-17.614c9.72,0,17.614,7.894,17.614,17.614
		C248.462,330.329,240.569,338.222,230.849,338.222z"/>
	<path class="st0" d="M162.63,298.753c8.107-8.364,20.726-15.759,36.386-20.983c15.645-5.239,34.302-8.308,54.33-8.308
		s38.67,3.07,54.33,8.308c15.66,5.224,28.264,12.619,36.372,20.97c2.526,2.583,7.037,2.954,10.092,0.828
		c3.04-2.127,3.469-5.924,0.971-8.508c-10.092-10.349-24.724-18.7-42.167-24.538c-17.472-5.84-37.843-9.15-59.598-9.15
		c-21.768,0-42.124,3.311-59.596,9.15c-17.444,5.838-32.076,14.189-42.168,24.538c-2.513,2.583-2.07,6.381,0.97,8.508
		C155.606,301.694,160.117,301.323,162.63,298.753z"/>
</g>
</svg>